<svg width="28" height="28" viewBox="0 0 28 28" fill="none" xmlns="http://www.w3.org/2000/svg">
<rect width="28" height="28" rx="14" fill="#EEEEE4"/>
<path fill-rule="evenodd" clip-rule="evenodd" d="M10.0051 10.005C10.2784 9.73165 10.7217 9.73165 10.995 10.005L14 13.01L17.0051 10.005C17.2784 9.73165 17.7217 9.73165 17.995 10.005C18.2684 10.2784 18.2684 10.7216 17.995 10.995L14.99 14L17.995 17.005C18.2684 17.2784 18.2684 17.7216 17.995 17.995C17.7217 18.2683 17.2784 18.2683 17.0051 17.995L14 14.9899L10.995 17.995C10.7217 18.2683 10.2784 18.2683 10.0051 17.995C9.73171 17.7216 9.73171 17.2784 10.0051 17.005L13.0101 14L10.0051 10.995C9.73171 10.7216 9.73171 10.2784 10.0051 10.005Z" fill="#9CA3AF"/>
</svg>