<svg
   version="1.1"
   viewBox="0 0 841.89 595.28"
   style="enable-background:new 0 0 841.89 595.28;"
   xmlns="http://www.w3.org/2000/svg">
   <defs id="defs69" />
<style type="text/css" id="style2">
	.st0{fill:#025099;}
	.st1{fill:#FAFAF0;}
	.st2{fill:#D0E4EB;}
	.st3{fill:#F4BD03;}
</style>
<rect
   style="opacity:1;fill:#f2f2f2;stroke-width:2;stroke-linecap:round;stroke-linejoin:round"
   id="rect1010"
   width="841.89001"
   height="595.28003"
   x="0" y="0" />
   <g id="g64">
	<g id="g16">
		<path
   class="st0"
   d="M480.89,156.45h17.97c0.65,0,1.24,0.29,1.76,0.88c0.52,0.58,0.78,1.2,0.78,1.86v113.46h32.22    c1.82,0,2.73,0.91,2.73,2.73v17.97c0,1.69-0.91,2.54-2.73,2.54h-52.73c-0.65,0-1.27-0.26-1.86-0.78c-0.58-0.52-0.88-1.1-0.88-1.76    V159.18c0-0.65,0.29-1.27,0.88-1.86C479.63,156.74,480.24,156.45,480.89,156.45z"
   id="path4" />
		<path
   class="st0"
   d="M604.51,295.89c-1.83,0-2.73-0.85-2.73-2.54V159.18c0-1.69,0.91-2.54,2.73-2.54h17.77    c1.82,0,2.73,0.85,2.73,2.54v134.16c0,1.69-0.91,2.54-2.73,2.54H604.51z"
   id="path6" />
		<path
   class="st0"
   d="M690.25,295.89c-0.78,0.13-1.43-0.1-1.95-0.68c-0.52-0.58-0.78-1.2-0.78-1.86v-17.97    c0-1.56,0.91-2.47,2.73-2.73c2.86-0.39,5.53-1.24,8-2.54c2.47-1.3,4.65-2.96,6.54-4.98c1.89-2.02,3.35-4.36,4.39-7.03    c1.04-2.67,1.56-5.5,1.56-8.5v-46.48c0-6.25,1.14-12.11,3.42-17.58c2.28-5.47,5.37-10.28,9.28-14.45    c3.9-4.17,8.53-7.52,13.87-10.06c5.33-2.54,11.06-4,17.18-4.39c1.82,0,2.73,0.85,2.73,2.54v17.97c0,0.65-0.26,1.27-0.78,1.86    c-0.52,0.58-1.17,0.88-1.95,0.88c-5.86,0.65-10.74,3.16-14.65,7.52c-3.9,4.36-5.86,9.6-5.86,15.72v46.48    c0,6.12-1.14,11.91-3.42,17.38c-2.28,5.47-5.37,10.28-9.27,14.45c-3.91,4.17-8.53,7.52-13.87,10.06    C702.09,294.03,696.36,295.5,690.25,295.89z"
   id="path8" />
		<path
   class="st0"
   d="M551.78,321.24c1.82,0.26,2.73,1.24,2.73,2.93v18.36c0,0.78-0.26,1.4-0.78,1.86    c-0.52,0.46-1.11,0.56-1.76,0.29c-1.44-0.26-2.93-0.45-4.49-0.58c-1.56-0.13-3.12-0.2-4.69-0.2c-6.38,0-12.37,1.2-17.97,3.61    c-5.6,2.41-10.51,5.73-14.74,9.96c-4.23,4.23-7.56,9.18-9.96,14.84c-2.41,5.66-3.61,11.69-3.61,18.06c0,6.38,1.2,12.4,3.61,18.07    c2.41,5.66,5.73,10.58,9.96,14.74c4.23,4.17,9.14,7.49,14.74,9.96c5.6,2.48,11.59,3.71,17.97,3.71c2.86,0,5.92-0.32,9.18-0.98    c1.69-0.26,2.54,0.46,2.54,2.15v18.35c0,0.66-0.26,1.3-0.78,1.95c-0.52,0.65-1.17,1.05-1.95,1.17c-1.43,0.13-2.9,0.26-4.39,0.39    c-1.5,0.13-3.03,0.19-4.59,0.19c-9.64,0-18.68-1.82-27.14-5.47c-8.47-3.64-15.82-8.62-22.07-14.94    c-6.25-6.31-11.2-13.7-14.84-22.16c-3.64-8.46-5.47-17.51-5.47-27.15c0-9.63,1.83-18.68,5.47-27.14    c3.64-8.46,8.59-15.85,14.84-22.17c6.25-6.31,13.6-11.29,22.07-14.94c8.46-3.64,17.5-5.47,27.14-5.47    C545.8,320.65,548.79,320.85,551.78,321.24z"
   id="path10" />
		<path
   class="st0"
   d="M616.63,319.68c6.38,0,12.4,1.24,18.06,3.71c5.67,2.48,10.58,5.86,14.75,10.16    c4.17,4.29,7.48,9.34,9.96,15.14c2.47,5.79,3.71,11.94,3.71,18.45c0,6.51-1.24,12.66-3.71,18.46c-2.48,5.79-5.79,10.84-9.96,15.13    c-4.17,4.3-9.08,7.68-14.75,10.16c-5.67,2.48-11.69,3.71-18.06,3.71c-6.38,0-12.4-1.23-18.07-3.71    c-5.66-2.47-10.58-5.86-14.74-10.16c-4.17-4.29-7.49-9.34-9.96-15.13c-2.47-5.79-3.71-11.94-3.71-18.46    c0-6.51,1.24-12.66,3.71-18.45c2.47-5.79,5.79-10.84,9.96-15.14c4.17-4.3,9.08-7.68,14.74-10.16    C604.23,320.92,610.25,319.68,616.63,319.68z M653.34,460.09h-73.43c-1.83,0-2.73-0.91-2.73-2.73v-17.77    c0-1.82,0.91-2.73,2.73-2.73h73.43c1.82,0,2.73,0.91,2.73,2.73v17.77C656.07,459.18,655.16,460.09,653.34,460.09z M616.63,390.37    c3.25,0,6.28-0.62,9.08-1.86c2.8-1.23,5.24-2.9,7.32-4.98c2.08-2.08,3.74-4.52,4.98-7.32c1.23-2.8,1.86-5.82,1.86-9.08    c0-3.25-0.62-6.28-1.86-9.08c-1.24-2.8-2.9-5.24-4.98-7.32c-2.09-2.08-4.53-3.74-7.32-4.98c-2.8-1.23-5.83-1.86-9.08-1.86    c-3.26,0-6.28,0.62-9.08,1.86c-2.8,1.24-5.25,2.9-7.32,4.98c-2.09,2.08-3.75,4.53-4.98,7.32c-1.24,2.8-1.86,5.83-1.86,9.08    c0,3.26,0.61,6.28,1.86,9.08c1.23,2.8,2.89,5.24,4.98,7.32c2.08,2.08,4.52,3.75,7.32,4.98    C610.35,389.76,613.37,390.37,616.63,390.37z"
   id="path12" />
		<path
   class="st0"
   d="M683.41,320.85h17.97c1.56,0,3.05,0.58,4.49,1.76l33,34.37v-33.59c0-1.69,0.85-2.54,2.54-2.54h17.96    c1.83,0,2.73,0.85,2.73,2.54v134.17c0,1.69-0.91,2.54-2.73,2.54h-17.96c-1.69,0-2.54-0.84-2.54-2.54v-66.98l-34.96-36.33v103.31    c0,1.69-0.85,2.54-2.54,2.54h-17.97c-1.83,0-2.73-0.84-2.73-2.54V323.39C680.68,321.7,681.58,320.85,683.41,320.85z"
   id="path14" />
	</g>
	<g
   id="g62">
		<rect
   x="76.61"
   y="130.88"
   class="st1"
   width="330.03"
   height="330.03"
   id="rect18" />
		<rect
   x="76.61"
   y="130.88"
   class="st1"
   width="330.03"
   height="330.03"
   id="rect20" />
		<path
   class="st0"
   d="M406.63,465.96H76.61c-2.79,0-5.05-2.26-5.05-5.05V130.88c0-2.79,2.26-5.05,5.05-5.05h330.03    c2.79,0,5.05,2.26,5.05,5.05V460.9C411.69,463.69,409.43,465.96,406.63,465.96z M81.66,455.85h319.92V135.93H81.66V455.85z"
   id="path22" />
		<g
   id="g34">
			<polygon
   class="st2"
   points="180.81,286.84 243.96,188.55 307.72,286.84 244.27,326.35    "
   id="polygon24" />
			<line
   class="st2"
   x1="244.27"
   y1="326.35"
   x2="244.27"
   y2="188.55"
   id="line26" />
			<polyline
   class="st2"
   points="180.81,286.84 244.27,260.48 307.72,286.84    "
   id="polyline28" />
			<polygon
   class="st2"
   points="180.81,313.21 244.27,351.01 307.72,313.21 244.27,404.14    "
   id="polygon30" />
			<line
   class="st2"
   x1="244.27"
   y1="402.92"
   x2="244.27"
   y2="351.01"
   id="line32" />
		</g>
		<g
   id="g40">
			<path
   class="st0"
   d="M312.72,286.34c-0.01-0.15-0.02-0.29-0.05-0.44c-0.04-0.19-0.1-0.37-0.16-0.55     c-0.04-0.13-0.07-0.26-0.12-0.39c-0.09-0.22-0.21-0.43-0.33-0.63c-0.04-0.07-0.07-0.15-0.12-0.23l-0.02-0.03     c0-0.01-0.01-0.01-0.01-0.02l-62.81-96.83c-0.59-2.14-2.53-3.73-4.85-3.73c-0.04,0-0.08,0.01-0.12,0.01     c-0.06,0-0.12-0.01-0.19-0.01c0,0-0.01,0-0.01,0c-1.72,0-3.31,0.88-4.24,2.32l-63.15,98.3c-0.07,0.1-0.1,0.21-0.16,0.32     c-0.1,0.18-0.2,0.35-0.27,0.53c-0.05,0.13-0.08,0.27-0.12,0.41c-0.06,0.18-0.12,0.36-0.15,0.54c-0.03,0.14-0.03,0.28-0.04,0.42     c-0.02,0.19-0.05,0.38-0.04,0.57c0,0.15,0.03,0.29,0.04,0.44c0.02,0.18,0.03,0.36,0.07,0.54c0.01,0.03,0,0.05,0.01,0.08     c0.04,0.16,0.1,0.3,0.15,0.46c0.04,0.12,0.06,0.25,0.11,0.37c0.01,0.02,0.02,0.03,0.03,0.05c0.08,0.18,0.18,0.35,0.28,0.52     c0.07,0.12,0.13,0.25,0.21,0.36c0.09,0.14,0.21,0.26,0.32,0.38c0.11,0.13,0.21,0.26,0.33,0.38c0.11,0.1,0.23,0.19,0.35,0.28     c0.14,0.11,0.28,0.23,0.43,0.33c0.02,0.01,0.04,0.03,0.06,0.04l63.45,39.5c0.21,0.13,0.43,0.25,0.66,0.34     c0.07,0.03,0.14,0.05,0.21,0.08c0.21,0.08,0.43,0.15,0.65,0.2c0.09,0.02,0.18,0.04,0.27,0.06c0.3,0.05,0.59,0.09,0.89,0.09     s0.6-0.04,0.89-0.09c0.09-0.02,0.18-0.04,0.27-0.06c0.22-0.05,0.43-0.12,0.65-0.2c0.07-0.03,0.14-0.05,0.21-0.08     c0.22-0.1,0.45-0.21,0.66-0.34l63.45-39.5c0.01-0.01,0.02-0.02,0.04-0.03c0.25-0.16,0.49-0.35,0.72-0.55     c0.05-0.04,0.09-0.09,0.13-0.14c0.17-0.17,0.33-0.35,0.47-0.55c0.05-0.07,0.1-0.14,0.15-0.21c0.13-0.19,0.25-0.4,0.35-0.62     c0.03-0.06,0.07-0.12,0.1-0.19c0.01-0.02,0.02-0.04,0.03-0.07c0.06-0.13,0.08-0.27,0.12-0.41c0.05-0.15,0.11-0.28,0.14-0.43     c0.01-0.02,0-0.05,0.01-0.07c0.04-0.18,0.05-0.36,0.06-0.53c0.02-0.15,0.04-0.31,0.04-0.46     C312.77,286.7,312.74,286.52,312.72,286.34z M239.21,257.11l-45.41,18.87l45.41-70.69V257.11z M239.21,268.05v49.2l-47.39-29.51     L239.21,268.05z M249.32,268.05l47.39,19.69l-47.39,29.51V268.05z M249.32,257.11V206.1l45.29,69.83L249.32,257.11z"
   id="path36" />
			<path
   class="st0"
   d="M305.13,308.86l-60.87,36.26l-60.87-36.26c-2.04-1.22-4.67-0.85-6.28,0.9c-1.62,1.74-1.81,4.38-0.45,6.33     l63.45,90.94c0.95,1.35,2.49,2.16,4.15,2.16s3.2-0.81,4.15-2.16l63.45-90.94c1.36-1.95,1.18-4.59-0.45-6.33     C309.79,308.02,307.18,307.64,305.13,308.86z M239.21,353.88v34.19l-40.83-58.51L239.21,353.88z M249.32,388.07v-34.19     l40.83-24.33L249.32,388.07z"
   id="path38" />
		</g>
		
			<rect
   x="233.77"
   y="417.58"
   transform="matrix(0.7071 -0.7071 0.7071 0.7071 -231.1519 298.1021)"
   class="st3"
   width="20.99"
   height="20.99"
   id="rect42" />
		
			<rect
   x="233.77"
   y="151.8"
   transform="matrix(0.7071 -0.7071 0.7071 0.7071 -43.2186 220.2576)"
   class="st3"
   width="20.99"
   height="20.99"
   id="rect44" />
		
			<rect
   x="115.85"
   y="283.52"
   transform="matrix(0.7071 -0.7071 0.7071 0.7071 -170.8989 175.4557)"
   class="st3"
   width="20.99"
   height="20.99"
   id="rect46" />
		
			<rect
   x="348.24"
   y="283.52"
   transform="matrix(0.7071 -0.7071 0.7071 0.7071 -102.8334 339.7804)"
   class="st3"
   width="20.99"
   height="20.99"
   id="rect48" />
		<g
   id="g54">
			<path
   class="st0"
   d="M111.5,262.45c-0.65,0-1.31-0.13-1.93-0.38c-1.89-0.78-3.12-2.63-3.12-4.67v-95.1     c0-2.79,2.26-5.05,5.05-5.05h95.1c2.04,0,3.89,1.23,4.67,3.12c0.78,1.89,0.35,4.06-1.1,5.51l-95.1,95.1     C114.11,261.94,112.82,262.45,111.5,262.45z M116.55,167.35v77.85l77.85-77.85H116.55z"
   id="path50" />
			<path
   class="st0"
   d="M373.58,262.45c-1.32,0-2.61-0.51-3.57-1.48l-95.1-95.1c-1.45-1.45-1.88-3.62-1.1-5.51     c0.78-1.89,2.63-3.12,4.67-3.12h95.1c2.79,0,5.05,2.26,5.05,5.05v95.1c0,2.04-1.23,3.89-3.12,4.67     C374.89,262.33,374.23,262.45,373.58,262.45z M290.68,167.35l77.85,77.85v-77.85H290.68z"
   id="path52" />
		</g>
		<g
   id="g60">
			<path
   class="st0"
   d="M373.58,430.8h-95.1c-2.04,0-3.89-1.23-4.67-3.12s-0.35-4.06,1.1-5.51l95.1-95.11     c1.44-1.45,3.61-1.89,5.51-1.1c1.89,0.78,3.12,2.63,3.12,4.67v95.11C378.63,428.54,376.37,430.8,373.58,430.8z M290.68,420.69     h77.85v-77.85L290.68,420.69z"
   id="path56" />
			<path
   class="st0"
   d="M206.6,430.8h-95.1c-2.79,0-5.05-2.26-5.05-5.05v-95.11c0-2.04,1.23-3.89,3.12-4.67     c1.89-0.79,4.06-0.35,5.51,1.1l95.1,95.11c1.45,1.45,1.88,3.62,1.1,5.51S208.65,430.8,206.6,430.8z M116.55,420.69h77.85     l-77.85-77.85V420.69z"
   id="path58" />
		</g>
	</g>
</g>
</svg>
